<?xml version="1.0" encoding="UTF-8"?><svg xmlns="http://www.w3.org/2000/svg" xmlns:xlink="http://www.w3.org/1999/xlink" width="481pt" height="340pt" viewBox="0 0 481 340" version="1.1"><defs><clipPath><path d="M 0 340 L 481 340 L 481 0 L 0 0 L 0 340 Z M 0 340"/></clipPath></defs><g><path style="fill: #666666" d="M 0 340 L 113 170 L 0 0 L 85 0 L 198 170 L 85 340 L 0 340 Z M 0 340"/><path style="fill: #99999A" d="M 113 340 L 227 170 L 113 0 L 198 0 L 425 340 L 340 340 L 269 233 L 198 340 L 113 340 Z M 113 340"/><path style="fill: #666666" d="M 387 241 L 350 184 L 482 184.25 L 482 241 L 387 241 Z M 387 241"/><path style="fill: #666666" d="M 331 156 L 293 99 L 482 99 L 482 156 L 331 156 Z M 331 156"/></g></svg>
